<?xml version="1.0" encoding="utf-8"?>
<!-- Generator: Adobe Illustrator 24.2.3, SVG Export Plug-In . SVG Version: 6.00 Build 0)  -->
<svg version="1.1" id="Шар_1" xmlns="http://www.w3.org/2000/svg" xmlns:xlink="http://www.w3.org/1999/xlink" x="0px" y="0px"
	 viewBox="0 0 20.7 33.9" style="enable-background:new 0 0 20.7 33.9;" xml:space="preserve">
<style type="text/css">
	.st0{fill:#FFFFFF;}
</style>
<path class="st0" d="M17.9,0H2.8C1.2,0,0,1.3,0,2.8v28.3c0,1.6,1.3,2.8,2.8,2.8h15.1c1.6,0,2.8-1.3,2.8-2.8V2.9
	C20.8,1.3,19.5,0,17.9,0z M12.2,31.1c-0.1,1-1,1.7-2,1.6c-1-0.1-1.8-1-1.6-2c0.1-1,1-1.7,2-1.6C11.6,29.1,12.3,30.1,12.2,31.1z
	 M18.4,27.7H2.2V6.2h16.3L18.4,27.7L18.4,27.7z"/>
</svg>
